<?xml version="1.0" encoding="utf-8"?>
<!-- Generator: Adobe Illustrator 19.0.0, SVG Export Plug-In . SVG Version: 6.00 Build 0)  -->
<svg version="1.1" id="Layer_1" xmlns="http://www.w3.org/2000/svg" xmlns:xlink="http://www.w3.org/1999/xlink" x="0px" y="0px"
	 viewBox="0 0 35 35" style="enable-background:new 0 0 35 35;" xml:space="preserve">
<g id="XMLID_93_">
	<path id="XMLID_110_" d="M34.4,0.6C34,0.2,33.4,0,32.9,0L21.4,0.8c-1.1,0.1-1.9,1-1.9,2.1c0.1,1.1,1,1.9,2.1,1.9l6.1-0.4L19,13.2
		c-0.8,0.8-0.8,2.1,0,2.8c0.4,0.4,0.9,0.6,1.4,0.6s1-0.2,1.4-0.6l8.8-8.8l-0.4,6.1c-0.1,1.1,0.8,2.1,1.9,2.1c0,0,0.1,0,0.1,0
		c1,0,1.9-0.8,2-1.9L35,2.1C35,1.6,34.8,1,34.4,0.6z"/>
	<path id="XMLID_111_" d="M13.2,19l-8.8,8.8l0.4-6.1c0.1-1.1-0.8-2.1-1.9-2.1c-1.1-0.1-2.1,0.8-2.1,1.9L0,32.9
		c0,0.6,0.2,1.1,0.6,1.6C1,34.8,1.5,35,2,35c0,0,0.1,0,0.1,0l11.5-0.8c1.1-0.1,1.9-1,1.9-2.1c-0.1-1.1-1-2-2.1-1.9l-6.1,0.4l8.8-8.8
		c0.8-0.8,0.8-2.1,0-2.8C15.2,18.2,14,18.2,13.2,19z"/>
</g>
</svg>
