<?xml version="1.0" encoding="utf-8"?>
<!-- Generator: Adobe Illustrator 19.0.0, SVG Export Plug-In . SVG Version: 6.00 Build 0)  -->
<svg version="1.1" id="Layer_1" xmlns="http://www.w3.org/2000/svg" xmlns:xlink="http://www.w3.org/1999/xlink" x="0px" y="0px"
	 viewBox="0 0 35 30" style="enable-background:new 0 0 35 30;" xml:space="preserve">
<g id="XMLID_27_">
	<path id="XMLID_28_" d="M12.9,18.5c-2.3,3-3.8,4.2-6.1,4.3C1.7,23-1.8,17.7,1,10.9c3.1-7.4,12-12,21.4-10.8
		C31.1,1.4,35.2,7,35,13.9C34.7,25.2,23.6,34.5,6.9,27.7l-0.1-0.4c12.3,5,21.9-2.3,22.6-13.7C29.7,7.3,27.1,3,22.2,1.9
		c-5.1-1.2-11.7,1.2-15.5,9.2c-2.2,4.7-2.8,9.9,0.1,10c2.7,0.1,4.9-4,6.7-6.3l4.7-6.3c0,0,1.7-2.1,2-2.8h0.2l3.1,14.8
		c0.2,1.2,0.7,1.7,1.5,1.7h0.2l0,0.3h-8.8l0-0.3h0.3c0.6,0,1.7-0.6,1.5-1.7l-0.3-1.9H12.9z M13.9,17.2h3.8L17,12.7L13.9,17.2z"/>
</g>
</svg>
