<?xml version="1.0" encoding="utf-8"?>
<!-- Generator: Adobe Illustrator 19.0.0, SVG Export Plug-In . SVG Version: 6.00 Build 0)  -->
<svg version="1.1" id="Layer_1" xmlns="http://www.w3.org/2000/svg" xmlns:xlink="http://www.w3.org/1999/xlink" x="0px" y="0px"
	 viewBox="0 0 35 35" style="enable-background:new 0 0 35 35;" xml:space="preserve">
<path id="XMLID_27_" d="M28.6,35c1.3,0.1,2.3-0.2,3.1-1l2.2-2.3c1.8-2,1.3-5.8-1.9-7l-4.8-1.3c-2.2-0.5-4.1,0.3-5.8,2.6
	c-6.6-2.2-10.6-6.5-12.3-12.5c2.3-1.7,3.1-3.7,2.6-5.8l-1.3-4.8c-1.3-3.3-5-3.8-7-1.9L1,3.2C0.3,4-0.1,5,0,6.3
	C1.6,23,10.8,32.9,28.6,35z"/>
</svg>
