<?xml version="1.0" encoding="utf-8"?>
<!-- Generator: Adobe Illustrator 21.0.2, SVG Export Plug-In . SVG Version: 6.00 Build 0)  -->
<svg version="1.1" id="Layer_1" xmlns="http://www.w3.org/2000/svg" xmlns:xlink="http://www.w3.org/1999/xlink" x="0px" y="0px"
	 viewBox="0 0 20 17" style="enable-background:new 0 0 20 17;" xml:space="preserve">
<g>
	<path d="M10.2,3.3c-0.1-0.1-0.4-0.1-0.5,0L2.9,9.9c-0.1,0.1-0.2,0.3-0.2,0.4v6.3c0,0.2,0.2,0.4,0.4,0.4h4.4c0.2,0,0.4-0.2,0.4-0.4
		v-4c0-0.2,0.2-0.4,0.4-0.4h3.5c0.2,0,0.4,0.2,0.4,0.4v4c0,0.2,0.2,0.4,0.4,0.4h4.4c0.2,0,0.4-0.2,0.4-0.4v-6.3
		c0-0.2-0.1-0.3-0.2-0.4L10.2,3.3z"/>
	<path d="M19.8,8.9l-8.9-8.5c-0.6-0.5-1.4-0.5-2,0L0.2,8.9c-0.3,0.3-0.3,0.7,0,1C0.3,10,0.5,10,0.7,10C0.8,10,1,10,1.1,9.8l8.7-8.5
		c0,0,0.1,0,0.1,0l8.9,8.5c0.3,0.3,0.7,0.2,0.9,0C20.1,9.6,20.1,9.1,19.8,8.9z"/>
</g>
</svg>
