<?xml version="1.0" encoding="utf-8"?>
<!-- Generator: Adobe Illustrator 19.0.0, SVG Export Plug-In . SVG Version: 6.00 Build 0)  -->
<svg version="1.1" id="Layer_1" xmlns="http://www.w3.org/2000/svg" xmlns:xlink="http://www.w3.org/1999/xlink" x="0px" y="0px"
	 viewBox="0 0 35 35" style="enable-background:new 0 0 35 35;" xml:space="preserve">
<path d="M0,0v35h35V0H0z M10.9,29.4H6V13.5h4.9V29.4z M8.5,11.3c-1.6,0-2.9-1.3-2.9-2.9c0-1.6,1.3-2.9,2.9-2.9
	c1.6,0,2.9,1.3,2.9,2.9C11.3,10.1,10,11.3,8.5,11.3z M29.4,29.4h-4.9v-7.7c0-1.8,0-4.2-2.6-4.2c-2.6,0-3,2-3,4.1v7.8H14V13.5h4.7
	v2.2h0.1c0.7-1.2,2.3-2.6,4.7-2.6c5,0,5.9,3.3,5.9,7.6V29.4z"/>
</svg>
