<?xml version="1.0" encoding="utf-8"?>
<!-- Generator: Adobe Illustrator 21.0.2, SVG Export Plug-In . SVG Version: 6.00 Build 0)  -->
<svg version="1.1" id="Layer_1" xmlns="http://www.w3.org/2000/svg" xmlns:xlink="http://www.w3.org/1999/xlink" x="0px" y="0px"
	 viewBox="0 0 35 33.3" style="enable-background:new 0 0 35 33.3;" xml:space="preserve">
<path d="M18,0.3l5,10.1c0.1,0.2,0.2,0.3,0.4,0.3l11.2,1.6c0.4,0.1,0.6,0.6,0.3,0.9l-8.1,7.9c-0.1,0.1-0.2,0.3-0.1,0.5l1.9,11.1
	c0.1,0.4-0.4,0.7-0.8,0.5l-10-5.3c-0.2-0.1-0.3-0.1-0.5,0l-10,5.3c-0.4,0.2-0.8-0.1-0.8-0.5l1.9-11.1c0-0.2,0-0.3-0.1-0.5l-8.1-7.9
	c-0.3-0.3-0.1-0.8,0.3-0.9l11.2-1.6c0.2,0,0.3-0.1,0.4-0.3l5-10.1C17.2-0.1,17.8-0.1,18,0.3z"/>
</svg>
